<?xml version="1.0" encoding="UTF-8"?>
<svg id="Layer_2" data-name="Layer 2" xmlns="http://www.w3.org/2000/svg" viewBox="0 0 331.96 83.57">
  <defs>
    <style>
      .cls-1 {
        fill: #717171;
      }

      .cls-2 {
        fill: #19214f;
      }
    </style>
  </defs>
  <g id="Layer_1-2" data-name="Layer 1">
    <g>
      <path class="cls-2" d="M52.53,44.77l1.79,1.03c-2.45,4.13-5.86,7.39-10.21,9.8-4.36,2.42-9.15,3.63-14.38,3.63-2.34,0-4.57-.22-6.69-.64-5.67-1.13-10.54-3.76-14.63-7.91-2.87-2.91-5-6.18-6.4-9.8-1.34-3.44-2.01-7.19-2.01-11.27,0-2.3.21-4.5.64-6.6,1.11-5.56,3.7-10.39,7.77-14.51C14.02,2.84,21.13,0,29.73,0c.42,0,.83.01,1.24.03,4.7.17,9.07,1.37,13.1,3.59,4.38,2.42,7.8,5.68,10.25,9.8l-6.33,3.66-3.39,1.96c-1.42-2.55-3.43-4.54-6.05-5.98-.95-.52-1.95-.95-2.99-1.28-1.81-.59-3.75-.88-5.83-.88-.4,0-.79,0-1.18.03-5.01.23-9.1,1.96-12.25,5.18-1.9,1.94-3.27,4.2-4.11,6.78-.6,1.83-.93,3.83-.98,5.99-.01.24-.02.48-.02.73,0,5.48,1.7,9.96,5.11,13.43,3.4,3.47,7.88,5.2,13.43,5.2,3.27,0,6.22-.71,8.87-2.15,2.64-1.44,4.64-3.41,6-5.9l7.93,4.58Z"/>
      <path class="cls-2" d="M91.72,53c-4.19,4.15-9.31,6.22-15.36,6.22s-11.15-2.07-15.31-6.22c-4.17-4.15-6.25-9.23-6.25-15.25s2.08-11.1,6.25-15.25c4.17-4.15,9.27-6.22,15.31-6.22s11.16,2.07,15.36,6.22c4.19,4.15,6.29,9.23,6.29,15.25s-2.1,11.1-6.29,15.25ZM68.49,45.8c2.1,2.11,4.72,3.17,7.88,3.17s5.8-1.06,7.92-3.17c2.12-2.12,3.19-4.8,3.19-8.05s-1.06-5.94-3.19-8.05c-2.12-2.12-4.77-3.17-7.92-3.17s-5.79,1.06-7.88,3.17c-2.1,2.12-3.14,4.8-3.14,8.05s1.05,5.94,3.14,8.05Z"/>
      <path class="cls-2" d="M126.6,17.41h11.6l-15.52,40.68h-12.01l-15.52-40.68h11.6l9.9,28.47,9.95-28.47Z"/>
      <path class="cls-2" d="M168.58,17.41h10.54v40.68h-10.54v-4.8c-3.16,3.96-7.6,5.94-13.31,5.94s-10.11-2.07-14.01-6.22c-3.89-4.15-5.84-9.23-5.84-15.25s1.95-11.1,5.84-15.25c3.89-4.15,8.56-6.22,14.01-6.22,5.72,0,10.15,1.98,13.31,5.94v-4.8ZM149.14,46.01c2.12,2.14,4.82,3.21,8.09,3.21s5.97-1.07,8.13-3.21c2.15-2.14,3.23-4.89,3.23-8.26s-1.08-6.11-3.23-8.26c-2.15-2.14-4.86-3.21-8.13-3.21s-5.96,1.07-8.09,3.21c-2.12,2.14-3.19,4.9-3.19,8.26s1.06,6.12,3.19,8.26Z"/>
      <path class="cls-2" d="M193.98,28.96c0,1.09.72,1.97,2.17,2.64,1.44.68,3.2,1.27,5.27,1.79,2.07.52,4.14,1.17,6.21,1.95,2.07.79,3.82,2.1,5.27,3.95,1.44,1.84,2.16,4.15,2.16,6.91,0,4.18-1.57,7.39-4.7,9.64-3.13,2.25-7.04,3.38-11.72,3.38-8.39,0-14.1-3.23-17.15-9.68l9.15-5.13c1.2,3.53,3.87,5.29,8.01,5.29,3.76,0,5.64-1.17,5.64-3.5,0-1.08-.72-1.96-2.16-2.64-1.44-.68-3.2-1.29-5.27-1.83-2.07-.54-4.14-1.22-6.21-2.03-2.07-.81-3.83-2.1-5.27-3.86-1.44-1.76-2.16-3.97-2.16-6.63,0-4.01,1.48-7.17,4.45-9.48,2.97-2.3,6.66-3.46,11.07-3.46,3.32,0,6.34.75,9.07,2.24,2.72,1.49,4.87,3.62,6.45,6.39l-8.98,4.88c-1.31-2.77-3.49-4.15-6.53-4.15-1.36,0-2.49.3-3.39.89-.9.6-1.35,1.41-1.35,2.44Z"/>
      <path class="cls-2" d="M248.21,17.41h10.54v40.68h-10.54v-4.8c-3.16,3.96-7.6,5.94-13.31,5.94s-10.12-2.07-14.01-6.22c-3.89-4.15-5.84-9.23-5.84-15.25s1.95-11.1,5.84-15.25c3.89-4.15,8.56-6.22,14.01-6.22,5.72,0,10.15,1.98,13.31,5.94v-4.8ZM228.78,46.01c2.12,2.14,4.82,3.21,8.09,3.21s5.98-1.07,8.13-3.21c2.15-2.14,3.23-4.89,3.23-8.26s-1.08-6.11-3.23-8.26c-2.15-2.14-4.86-3.21-8.13-3.21s-5.96,1.07-8.09,3.21c-2.12,2.14-3.19,4.9-3.19,8.26s1.06,6.12,3.19,8.26Z"/>
      <path class="cls-2" d="M286.93,16.27c4.46,0,8.15,1.49,11.07,4.47,2.91,2.98,4.37,7.11,4.37,12.37v24.97h-10.54v-23.67c0-2.71-.74-4.79-2.21-6.22-1.47-1.44-3.43-2.16-5.88-2.16-2.72,0-4.9.84-6.53,2.52-1.63,1.68-2.45,4.2-2.45,7.57v21.96h-10.54V17.41h10.54v4.56c2.56-3.8,6.62-5.69,12.17-5.69h0Z"/>
      <path class="cls-2" d="M330.62,27.5h-9.23v16.92c0,1.41.35,2.44,1.06,3.09.71.65,1.74,1.02,3.1,1.1,1.36.08,3.05.07,5.06-.04v9.52c-7.24.81-12.35.13-15.31-2.03-2.97-2.17-4.45-6.05-4.45-11.63v-16.92h-7.11v-10.09h7.11v-8.22l10.54-3.17v11.39h9.23v10.09h0Z"/>
      <path class="cls-1" d="M110.21,79.87l4.73-13.18h2.46l4.79,13.18h-2.18l-2.58-7.35c-.2-.61-.42-1.31-.66-2.1-.24-.79-.52-1.75-.84-2.88h.44c-.31,1.13-.59,2.1-.83,2.9s-.45,1.5-.65,2.08l-2.52,7.35h-2.18,0ZM112.8,76.41v-1.68h6.82v1.68h-6.82Z"/>
      <path class="cls-1" d="M125.56,66.68v13.18h-2.03v-13.18h2.03Z"/>
      <path class="cls-1" d="M133.6,72.44v1.67h-5.88v-1.67h5.88Z"/>
      <path class="cls-1" d="M137.78,66.68v13.18h-2.03v-13.18h2.03ZM140.05,79.87h-3.27v-1.75h3.16c1.01,0,1.84-.19,2.51-.57.67-.38,1.16-.93,1.49-1.65.33-.73.49-1.6.49-2.64s-.16-1.91-.49-2.62c-.33-.72-.82-1.26-1.47-1.64-.65-.37-1.46-.56-2.42-.56h-3.34v-1.75h3.46c1.3,0,2.42.26,3.35.79.93.53,1.64,1.28,2.15,2.27.5.99.75,2.16.75,3.52s-.25,2.55-.76,3.53c-.5.99-1.23,1.75-2.18,2.28-.95.53-2.1.8-3.45.8h0Z"/>
      <path class="cls-1" d="M148.16,79.87v-9.77h1.87v1.57h.09c.18-.53.49-.95.93-1.25.43-.3.95-.45,1.53-.45.13,0,.27,0,.42.01.15,0,.28.02.38.03v1.83c-.07-.02-.21-.04-.4-.06-.2-.02-.4-.04-.62-.04-.43,0-.81.09-1.15.27-.34.18-.61.44-.81.77-.19.33-.29.72-.29,1.17v5.9h-1.95Z"/>
      <path class="cls-1" d="M155.65,68.57c-.34,0-.63-.11-.86-.34-.24-.23-.35-.5-.35-.82s.12-.6.35-.82c.24-.22.52-.33.86-.33s.62.11.86.33.35.49.35.82-.12.59-.35.82c-.24.23-.52.34-.86.34ZM154.67,79.87v-9.77h1.94v9.77h-1.94Z"/>
      <path class="cls-1" d="M161.49,79.87l-3.71-9.77h2.09l1.94,5.51c.21.58.39,1.17.55,1.77.16.59.32,1.18.47,1.76h-.55c.16-.58.33-1.16.48-1.75.15-.59.33-1.18.53-1.77l1.94-5.51h2.07l-3.71,9.77h-2.1Z"/>
      <path class="cls-1" d="M172.36,80.07c-.97,0-1.81-.21-2.51-.63-.7-.42-1.24-1.01-1.61-1.76-.38-.76-.56-1.64-.56-2.65s.19-1.88.56-2.64c.37-.76.9-1.36,1.58-1.79.68-.43,1.48-.65,2.38-.65.59,0,1.15.1,1.68.29.53.19,1,.49,1.41.9.41.4.74.92.97,1.54.24.62.35,1.36.35,2.22v.65h-7.91v-1.45h6.91l-.89.47c0-.6-.1-1.12-.29-1.58-.19-.46-.48-.81-.85-1.07-.38-.25-.84-.38-1.38-.38s-1.01.13-1.4.39c-.39.26-.69.6-.89,1.04-.21.43-.31.91-.31,1.44v.95c0,.66.11,1.22.34,1.68.23.47.55.82.97,1.07.42.25.9.37,1.46.37.37,0,.71-.05,1.01-.16.3-.11.56-.27.77-.48.21-.21.37-.47.48-.78l1.83.34c-.15.53-.41,1-.79,1.4s-.85.72-1.42.94c-.57.22-1.2.34-1.91.34Z"/>
      <path class="cls-1" d="M180.13,74.11v5.75h-1.95v-9.77h1.87v2.4s-.24,0-.24,0c.29-.87.71-1.51,1.26-1.92.55-.41,1.22-.61,2-.61.67,0,1.26.14,1.76.42.51.28.9.7,1.19,1.25.28.55.43,1.23.43,2.05v6.18h-1.94v-5.95c0-.72-.19-1.28-.55-1.68-.37-.4-.88-.6-1.52-.6-.44,0-.83.09-1.18.28-.35.19-.62.47-.82.83-.2.37-.3.82-.3,1.35Z"/>
      <path class="cls-2" d="M189.86,80.01c-.36,0-.67-.13-.92-.38-.25-.25-.38-.56-.38-.92s.13-.66.38-.92c.25-.25.56-.38.92-.38s.67.13.92.38c.25.25.38.56.38.92s-.13.66-.38.92c-.25.25-.56.38-.92.38Z"/>
      <path class="cls-1" d="M197.51,79.87v-13.18h2.02v5.57h6.56v-5.57h2.02v13.18h-2.02v-5.88h-6.56v5.88h-2.02Z"/>
      <path class="cls-1" d="M213.7,80c-.67,0-1.26-.14-1.77-.42s-.91-.7-1.2-1.25c-.29-.55-.43-1.24-.43-2.05v-6.18h1.94v5.94c0,.72.19,1.28.55,1.68.37.4.88.6,1.53.6.44,0,.83-.09,1.17-.28.34-.19.62-.47.82-.84.2-.37.3-.82.3-1.35v-5.75h1.95v9.77h-1.87v-2.4s.24,0,.24,0c-.3.88-.72,1.52-1.28,1.92-.55.4-1.21.61-1.98.61h0Z"/>
      <path class="cls-1" d="M220.63,79.87v-9.77h1.86l.04,2.22h-.15c.15-.54.37-.99.67-1.34.3-.35.64-.61,1.04-.79.4-.18.81-.27,1.24-.27.72,0,1.31.22,1.77.66.46.44.77,1.04.92,1.79h-.26c.13-.51.35-.95.67-1.32.31-.37.69-.65,1.14-.84.45-.19.93-.29,1.45-.29.58,0,1.11.13,1.59.38.48.25.86.63,1.13,1.13s.42,1.13.42,1.88v6.56h-1.94v-6.36c0-.67-.18-1.15-.55-1.44-.37-.29-.81-.44-1.32-.44-.41,0-.76.09-1.06.26-.3.17-.53.41-.69.71-.16.3-.24.65-.24,1.05v6.23h-1.91v-6.49c0-.53-.17-.96-.51-1.27-.34-.32-.78-.48-1.31-.48-.36,0-.7.08-1.01.25-.31.17-.56.42-.75.74-.19.33-.28.73-.28,1.22v6.03h-1.95Z"/>
      <path class="cls-1" d="M238.99,80.07c-.63,0-1.19-.11-1.7-.34-.5-.23-.9-.56-1.2-1-.29-.44-.44-.99-.44-1.63,0-.55.11-1.01.32-1.37.22-.36.51-.64.87-.84.36-.21.77-.36,1.22-.47.45-.11.92-.19,1.39-.24.59-.07,1.06-.13,1.42-.18.36-.05.62-.12.79-.22.17-.1.25-.27.25-.5v-.05c0-.36-.07-.66-.21-.92-.14-.25-.35-.44-.64-.58-.28-.14-.63-.2-1.05-.2s-.78.07-1.09.2c-.31.13-.56.3-.75.51-.19.21-.33.43-.4.67l-1.84-.36c.18-.6.47-1.08.88-1.46.4-.38.87-.66,1.43-.85s1.14-.28,1.77-.28c.44,0,.88.05,1.34.16.45.11.87.29,1.25.54.38.25.69.6.92,1.04.23.44.35.99.35,1.65v6.53h-1.88v-1.35h-.08c-.13.25-.32.5-.57.73-.25.24-.57.43-.95.58-.39.15-.85.23-1.39.23h0ZM239.42,78.52c.54,0,.99-.1,1.37-.31.37-.21.66-.48.85-.81.19-.34.29-.7.29-1.08v-1.23c-.07.07-.19.12-.38.18-.19.05-.41.1-.65.15-.24.04-.48.08-.72.12-.24.03-.44.06-.62.08-.35.05-.69.13-.99.23-.3.11-.55.27-.73.47-.18.2-.27.47-.27.81,0,.31.08.56.23.77.16.21.38.36.65.47.28.11.6.16.96.16h0Z"/>
      <path class="cls-1" d="M247.85,74.11v5.75h-1.94v-9.77h1.87v2.4s-.24,0-.24,0c.29-.87.71-1.51,1.26-1.92.55-.41,1.22-.61,2-.61.67,0,1.26.14,1.76.42.51.28.9.7,1.19,1.25.28.55.43,1.23.43,2.05v6.18h-1.94v-5.95c0-.72-.19-1.28-.56-1.68s-.88-.6-1.52-.6c-.44,0-.83.09-1.18.28-.35.19-.62.47-.82.83-.2.37-.3.82-.3,1.35Z"/>
      <path class="cls-1" d="M262.07,73.52v1.67h-5.88v-1.67h5.88Z"/>
      <path class="cls-1" d="M266.25,66.68v13.18h-2.03v-13.18h2.03Z"/>
      <path class="cls-1" d="M270.4,74.11v5.75h-1.94v-9.77h1.87v2.4s-.24,0-.24,0c.29-.87.71-1.51,1.26-1.92.55-.41,1.22-.61,2-.61.67,0,1.26.14,1.76.42.51.28.9.7,1.19,1.25.28.55.43,1.23.43,2.05v6.18h-1.94v-5.95c0-.72-.19-1.28-.56-1.68s-.88-.6-1.52-.6c-.44,0-.83.09-1.18.28-.35.19-.62.47-.82.83-.2.37-.3.82-.3,1.35Z"/>
      <path class="cls-1" d="M282.32,80.08c-.72,0-1.36-.11-1.93-.32-.56-.21-1.02-.53-1.38-.94s-.59-.92-.69-1.53l1.85-.3c.12.51.36.89.72,1.15.36.25.84.38,1.43.38.62,0,1.12-.13,1.48-.38.37-.26.55-.57.55-.93,0-.32-.12-.58-.35-.78-.23-.2-.58-.36-1.04-.46l-1.65-.36c-.91-.21-1.59-.54-2.04-.99-.45-.45-.67-1.03-.67-1.74,0-.58.16-1.09.48-1.53.32-.44.77-.78,1.34-1.02.57-.24,1.22-.36,1.96-.36s1.33.11,1.85.32c.52.22.93.52,1.25.91.32.39.53.84.64,1.36l-1.77.3c-.09-.37-.3-.69-.61-.96-.31-.27-.76-.41-1.34-.41-.54,0-.98.12-1.34.36-.35.24-.53.55-.53.93,0,.32.12.59.36.79.24.2.62.36,1.14.48l1.59.35c.92.21,1.61.53,2.05.96.44.44.66,1,.66,1.69,0,.6-.17,1.12-.52,1.58-.34.46-.82.81-1.42,1.07-.6.26-1.3.38-2.09.38h0Z"/>
      <path class="cls-1" d="M287.92,83.56v-13.47h1.89v1.55h.13c.14-.24.32-.48.55-.74.23-.26.53-.48.91-.67.38-.19.85-.28,1.42-.28.81,0,1.52.2,2.14.61.62.4,1.11.98,1.46,1.73.35.75.53,1.65.53,2.7s-.18,1.94-.53,2.7c-.35.76-.84,1.34-1.46,1.75-.62.41-1.33.61-2.15.61-.56,0-1.02-.09-1.4-.28-.37-.19-.68-.41-.91-.67-.23-.26-.42-.51-.55-.76h-.09v5.21h-1.95ZM292.4,78.41c.55,0,1.02-.15,1.4-.44.39-.29.68-.7.87-1.22s.3-1.1.3-1.77-.1-1.25-.3-1.76c-.2-.51-.49-.91-.87-1.19-.38-.29-.85-.43-1.41-.43s-1.03.14-1.41.42c-.39.28-.68.68-.88,1.18-.2.5-.3,1.1-.3,1.78s.1,1.27.3,1.79c.2.51.5.91.88,1.2.39.29.85.43,1.4.43h0Z"/>
      <path class="cls-1" d="M299.52,68.57c-.34,0-.63-.11-.86-.34-.24-.23-.35-.5-.35-.82s.12-.6.35-.82c.24-.22.52-.33.86-.33s.62.11.86.33c.24.22.35.49.35.82s-.12.59-.35.82c-.24.23-.52.34-.86.34ZM298.54,79.87v-9.77h1.94v9.77h-1.94Z"/>
      <path class="cls-1" d="M302.54,79.87v-9.77h1.87v1.57h.09c.18-.53.49-.95.93-1.25.43-.3.95-.45,1.53-.45.13,0,.27,0,.42.01.15,0,.28.02.38.03v1.83c-.07-.02-.21-.04-.4-.06-.2-.02-.4-.04-.62-.04-.43,0-.81.09-1.16.27-.34.18-.61.44-.81.77-.19.33-.29.72-.29,1.17v5.9h-1.95Z"/>
      <path class="cls-1" d="M312.85,80.07c-.97,0-1.81-.21-2.5-.63-.7-.42-1.24-1.01-1.61-1.76-.38-.76-.56-1.64-.56-2.65s.19-1.88.56-2.64c.37-.76.9-1.36,1.58-1.79.68-.43,1.48-.65,2.38-.65.59,0,1.15.1,1.68.29.53.19,1,.49,1.41.9.41.4.74.92.97,1.54.24.62.35,1.36.35,2.22v.65h-7.92v-1.45h6.91l-.89.47c0-.6-.1-1.12-.29-1.58-.19-.46-.48-.81-.85-1.07-.38-.25-.84-.38-1.38-.38s-1.01.13-1.4.39c-.39.26-.69.6-.89,1.04-.21.43-.31.91-.31,1.44v.95c0,.66.11,1.22.34,1.68.23.47.55.82.97,1.07.42.25.9.37,1.46.37.37,0,.71-.05,1.01-.16.3-.11.56-.27.77-.48.21-.21.37-.47.48-.78l1.83.34c-.15.53-.41,1-.79,1.4s-.85.72-1.42.94c-.57.22-1.2.34-1.91.34Z"/>
      <path class="cls-1" d="M322.35,80.06c-.81,0-1.52-.21-2.14-.61-.62-.41-1.11-.99-1.46-1.75-.35-.76-.53-1.65-.53-2.7s.18-1.95.53-2.7c.36-.75.85-1.33,1.47-1.73.62-.4,1.33-.61,2.13-.61.57,0,1.04.09,1.42.28.38.19.68.41.91.67.23.26.41.51.54.74h.1v-4.96h1.94v13.18h-1.89v-1.52h-.13c-.13.25-.31.5-.55.77-.24.26-.54.49-.92.67-.37.19-.84.28-1.4.28h0ZM322.77,78.41c.55,0,1.02-.14,1.4-.43.39-.29.68-.69.88-1.2.2-.51.3-1.11.3-1.79s-.1-1.28-.3-1.78c-.2-.5-.49-.9-.87-1.18-.39-.28-.86-.42-1.41-.42s-1.03.14-1.41.43-.67.69-.87,1.19c-.2.51-.3,1.09-.3,1.76s.1,1.25.3,1.77c.2.52.49.92.88,1.22.39.3.86.44,1.4.44h0Z"/>
      <path class="cls-2" d="M330.66,80.01c-.36,0-.67-.13-.92-.38-.25-.25-.38-.56-.38-.92s.13-.66.38-.92c.25-.25.56-.38.92-.38s.67.13.92.38.38.56.38.92-.13.66-.38.92c-.25.25-.56.38-.92.38Z"/>
    </g>
  </g>
</svg>