<?xml version="1.0" encoding="UTF-8"?>
<svg id="Layer_2" data-name="Layer 2" xmlns="http://www.w3.org/2000/svg" viewBox="0 0 333.88 84.04">
  <defs>
    <style>
      .cls-1 {
        fill: #fff;
      }
    </style>
  </defs>
  <g id="Layer_1-2" data-name="Layer 1">
    <g>
      <path class="cls-1" d="M52.84,45.03l1.79,1.04c-2.46,4.14-5.88,7.43-10.27,9.85-4.39,2.42-9.2,3.64-14.46,3.64-2.35,0-4.59-.21-6.72-.63-5.7-1.13-10.61-3.79-14.71-7.95-2.89-2.94-5.04-6.22-6.44-9.85-1.35-3.46-2.02-7.25-2.02-11.34,0-2.31.22-4.53.65-6.64,1.12-5.59,3.73-10.45,7.82-14.59C14.11,2.85,21.26,0,29.9,0c.41,0,.84,0,1.24.02,4.73.18,9.12,1.39,13.18,3.62,4.41,2.42,7.84,5.71,10.3,9.85l-6.36,3.68-3.42,1.97c-1.41-2.57-3.45-4.57-6.07-6.02-.96-.52-1.97-.96-3.02-1.29-1.81-.58-3.78-.88-5.86-.88-.4,0-.8.01-1.19.02-5.03.23-9.15,1.97-12.31,5.21-1.91,1.95-3.29,4.23-4.14,6.82-.6,1.84-.93,3.85-.99,6.02,0,.24-.01.49-.01.74,0,5.51,1.72,10.01,5.14,13.5,3.42,3.5,7.93,5.24,13.51,5.24,3.29,0,6.26-.72,8.92-2.17,2.66-1.44,4.67-3.42,6.04-5.93l7.98,4.62Z"/>
      <path class="cls-1" d="M92.26,53.3c-4.22,4.17-9.36,6.26-15.44,6.26s-11.21-2.09-15.4-6.26c-4.19-4.17-6.28-9.29-6.28-15.34s2.09-11.17,6.28-15.34c4.19-4.17,9.32-6.26,15.4-6.26s11.23,2.09,15.44,6.26c4.22,4.17,6.33,9.29,6.33,15.34s-2.11,11.17-6.33,15.34ZM68.88,46.06c2.11,2.13,4.75,3.19,7.93,3.19s5.83-1.06,7.97-3.19c2.14-2.13,3.2-4.83,3.2-8.1s-1.07-5.97-3.2-8.1c-2.14-2.13-4.79-3.19-7.97-3.19s-5.82,1.06-7.93,3.19c-2.11,2.13-3.16,4.83-3.16,8.1s1.05,5.97,3.16,8.1Z"/>
      <path class="cls-1" d="M127.33,17.51h11.66l-15.61,40.91h-12.07l-15.61-40.91h11.66l9.96,28.63,10.01-28.63Z"/>
      <path class="cls-1" d="M169.56,17.51h10.6v40.91h-10.6v-4.83c-3.18,3.98-7.64,5.97-13.39,5.97s-10.17-2.09-14.09-6.26c-3.92-4.17-5.87-9.29-5.87-15.34s1.96-11.17,5.87-15.34c3.91-4.17,8.61-6.26,14.09-6.26,5.75,0,10.21,1.99,13.39,5.97v-4.83ZM150.01,46.27c2.14,2.16,4.85,3.23,8.13,3.23s6.01-1.08,8.17-3.23c2.16-2.15,3.24-4.92,3.24-8.3s-1.08-6.15-3.24-8.3c-2.16-2.15-4.89-3.23-8.17-3.23s-6,1.08-8.13,3.23c-2.14,2.16-3.2,4.92-3.2,8.3s1.07,6.15,3.2,8.3Z"/>
      <path class="cls-1" d="M195.1,29.13c0,1.09.73,1.98,2.18,2.66,1.45.68,3.22,1.28,5.3,1.8,2.08.52,4.16,1.17,6.24,1.96,2.08.79,3.85,2.11,5.3,3.97,1.45,1.86,2.18,4.17,2.18,6.95,0,4.2-1.57,7.43-4.72,9.7-3.15,2.26-7.08,3.4-11.79,3.4-8.44,0-14.19-3.24-17.25-9.74l9.2-5.15c1.2,3.55,3.89,5.32,8.05,5.32,3.78,0,5.67-1.17,5.67-3.52,0-1.09-.73-1.98-2.18-2.66-1.45-.68-3.22-1.3-5.3-1.84-2.08-.54-4.16-1.23-6.24-2.05-2.08-.82-3.85-2.11-5.3-3.89-1.45-1.77-2.18-4-2.18-6.67,0-4.04,1.49-7.21,4.48-9.53,2.98-2.32,6.69-3.48,11.13-3.48,3.34,0,6.38.75,9.12,2.25,2.74,1.5,4.9,3.64,6.49,6.42l-9.04,4.91c-1.31-2.78-3.51-4.17-6.57-4.17-1.37,0-2.51.3-3.41.9-.9.6-1.36,1.42-1.36,2.45Z"/>
      <path class="cls-1" d="M249.65,17.51h10.6v40.91h-10.6v-4.83c-3.18,3.98-7.64,5.97-13.39,5.97s-10.17-2.09-14.09-6.26c-3.92-4.17-5.87-9.29-5.87-15.34s1.96-11.17,5.87-15.34c3.91-4.17,8.61-6.26,14.09-6.26,5.75,0,10.21,1.99,13.39,5.97v-4.83ZM230.1,46.27c2.14,2.16,4.85,3.23,8.13,3.23s6.01-1.08,8.17-3.23c2.16-2.15,3.24-4.92,3.24-8.3s-1.08-6.15-3.24-8.3c-2.16-2.15-4.89-3.23-8.17-3.23s-6,1.08-8.13,3.23c-2.14,2.16-3.2,4.92-3.2,8.3s1.07,6.15,3.2,8.3Z"/>
      <path class="cls-1" d="M288.59,16.36c4.49,0,8.2,1.5,11.13,4.5,2.93,3,4.39,7.15,4.39,12.44v25.12h-10.6v-23.81c0-2.73-.74-4.81-2.22-6.26-1.48-1.44-3.45-2.17-5.91-2.17-2.74,0-4.93.85-6.57,2.54-1.64,1.69-2.46,4.23-2.46,7.61v22.09h-10.6V17.51h10.6v4.58c2.57-3.82,6.65-5.73,12.24-5.73h0Z"/>
      <path class="cls-1" d="M332.54,27.65h-9.28v17.02c0,1.42.36,2.45,1.07,3.11.71.65,1.75,1.02,3.12,1.1,1.37.08,3.07.07,5.09-.04v9.57c-7.28.82-12.42.14-15.4-2.05-2.99-2.18-4.48-6.08-4.48-11.7v-17.02h-7.15v-10.15h7.15v-8.26l10.6-3.19v11.45h9.28v10.15h0Z"/>
      <path class="cls-1" d="M110.85,80.32l4.76-13.26h2.47l4.82,13.26h-2.19l-2.59-7.4c-.2-.61-.42-1.32-.67-2.11-.24-.8-.52-1.76-.84-2.9h.45c-.32,1.14-.59,2.11-.83,2.92s-.46,1.5-.65,2.09l-2.54,7.4h-2.19,0ZM113.45,76.84v-1.69h6.86v1.69h-6.86Z"/>
      <path class="cls-1" d="M126.29,67.06v13.26h-2.04v-13.26h2.04Z"/>
      <path class="cls-1" d="M134.37,72.86v1.68h-5.91v-1.68h5.91Z"/>
      <path class="cls-1" d="M138.58,67.06v13.26h-2.04v-13.26h2.04ZM140.86,80.32h-3.29v-1.76h3.18c1.01,0,1.85-.19,2.53-.57.67-.38,1.17-.93,1.5-1.66.33-.73.5-1.61.5-2.65s-.16-1.92-.5-2.64c-.33-.72-.82-1.27-1.47-1.65-.65-.38-1.46-.57-2.43-.57h-3.36v-1.76h3.48c1.31,0,2.43.26,3.37.79.94.53,1.65,1.29,2.16,2.28.5.99.76,2.17.76,3.54s-.25,2.56-.76,3.56c-.51.99-1.24,1.76-2.19,2.29-.95.53-2.11.8-3.47.8h0Z"/>
      <path class="cls-1" d="M149.02,80.32v-9.82h1.89v1.57h.09c.19-.53.5-.95.93-1.25.44-.3.95-.45,1.54-.45.13,0,.27,0,.43.01.15,0,.28.02.38.03v1.84c-.07-.02-.21-.04-.41-.06-.2-.02-.41-.04-.62-.04-.43,0-.82.09-1.16.28-.35.18-.62.44-.81.78-.2.34-.29.73-.29,1.18v5.94h-1.96Z"/>
      <path class="cls-1" d="M156.55,68.96c-.34,0-.63-.11-.87-.34-.24-.23-.36-.5-.36-.82s.12-.6.36-.82c.24-.22.53-.33.87-.33s.63.11.87.33.36.5.36.82-.12.6-.36.82c-.24.23-.53.34-.87.34ZM155.57,80.32v-9.82h1.96v9.82h-1.96Z"/>
      <path class="cls-1" d="M162.43,80.32l-3.73-9.83h2.1l1.96,5.54c.21.59.39,1.18.55,1.78.16.6.32,1.19.48,1.77h-.55c.17-.58.33-1.17.48-1.76.15-.59.33-1.19.54-1.78l1.95-5.54h2.08l-3.73,9.83h-2.11Z"/>
      <path class="cls-1" d="M173.35,80.53c-.98,0-1.82-.21-2.52-.63-.7-.42-1.24-1.01-1.62-1.77-.38-.76-.57-1.65-.57-2.66s.19-1.89.56-2.66c.38-.77.91-1.37,1.59-1.8.68-.43,1.48-.65,2.39-.65.6,0,1.16.1,1.69.29.53.2,1.01.5,1.42.9.41.41.74.92.98,1.55.24.63.36,1.37.36,2.23v.66h-7.96v-1.46h6.95l-.89.47c0-.6-.1-1.13-.29-1.59-.19-.46-.48-.82-.86-1.07-.38-.26-.84-.38-1.39-.38s-1.02.13-1.41.39c-.39.26-.69.61-.9,1.04-.21.43-.31.92-.31,1.45v.95c0,.66.11,1.22.34,1.69.23.47.55.83.97,1.07.42.25.91.37,1.47.37.38,0,.72-.06,1.02-.16.3-.11.56-.27.78-.49.21-.21.38-.47.48-.78l1.84.34c-.15.53-.41,1-.8,1.41s-.86.72-1.43.95c-.57.23-1.21.34-1.92.34Z"/>
      <path class="cls-1" d="M181.17,74.54v5.78h-1.96v-9.83h1.88v2.41s-.24,0-.24,0c.29-.88.71-1.52,1.27-1.94.55-.41,1.23-.62,2.01-.62.67,0,1.26.14,1.77.43.51.28.91.7,1.19,1.26.29.55.43,1.24.43,2.06v6.22h-1.95v-5.98c0-.72-.19-1.29-.56-1.69-.37-.4-.88-.6-1.53-.6-.44,0-.84.09-1.19.28-.35.19-.63.47-.83.84-.2.37-.3.82-.3,1.36Z"/>
      <path class="cls-1" d="M190.96,80.47c-.36,0-.67-.13-.93-.38-.26-.25-.38-.56-.38-.92s.13-.67.38-.92c.26-.25.57-.38.93-.38s.67.13.92.38c.25.25.38.56.38.92s-.13.67-.38.92c-.25.25-.56.38-.92.38Z"/>
      <path class="cls-1" d="M198.65,80.32v-13.26h2.04v5.61h6.59v-5.61h2.03v13.26h-2.03v-5.91h-6.59v5.91h-2.04Z"/>
      <path class="cls-1" d="M214.94,80.46c-.67,0-1.27-.14-1.78-.42s-.91-.7-1.2-1.26c-.29-.56-.43-1.25-.43-2.06v-6.21h1.96v5.97c0,.72.19,1.29.56,1.69.37.4.89.61,1.54.61.44,0,.83-.09,1.18-.28.34-.19.62-.47.82-.84.2-.37.3-.82.3-1.36v-5.78h1.96v9.83h-1.88v-2.41s.24,0,.24,0c-.3.88-.72,1.53-1.28,1.94-.56.41-1.22.61-1.99.61h0Z"/>
      <path class="cls-1" d="M221.91,80.32v-9.83h1.87l.04,2.23h-.15c.15-.55.37-.99.67-1.35.3-.35.65-.62,1.05-.8.4-.18.82-.27,1.25-.27.72,0,1.31.22,1.78.66.47.44.77,1.04.92,1.8h-.26c.13-.52.35-.96.67-1.33.32-.37.7-.65,1.15-.85.45-.2.94-.29,1.46-.29.58,0,1.12.13,1.59.38.48.26.86.63,1.14,1.14s.42,1.13.42,1.89v6.59h-1.95v-6.4c0-.67-.19-1.15-.56-1.45-.37-.3-.81-.44-1.33-.44-.41,0-.77.09-1.07.26-.3.17-.53.41-.69.72-.16.31-.24.66-.24,1.05v6.27h-1.92v-6.53c0-.53-.17-.96-.51-1.28-.34-.32-.78-.48-1.32-.48-.36,0-.7.08-1.01.25-.31.17-.56.42-.75.75-.19.33-.28.74-.28,1.22v6.07h-1.96Z"/>
      <path class="cls-1" d="M240.37,80.53c-.63,0-1.2-.11-1.71-.34-.51-.23-.91-.57-1.2-1.01-.29-.44-.44-.99-.44-1.64,0-.56.11-1.02.33-1.37.22-.36.51-.64.87-.85.36-.21.77-.37,1.23-.47.46-.11.92-.19,1.4-.24.59-.07,1.06-.13,1.43-.18.36-.05.63-.12.8-.22.17-.1.25-.27.25-.5v-.05c0-.36-.07-.67-.21-.92-.14-.25-.36-.45-.64-.58-.29-.14-.64-.2-1.05-.2s-.79.07-1.1.2c-.31.13-.56.31-.76.52-.19.21-.33.43-.41.67l-1.85-.36c.18-.6.48-1.09.88-1.47.4-.38.88-.67,1.43-.85s1.15-.28,1.78-.28c.44,0,.89.05,1.34.16.46.11.88.29,1.26.54.38.26.69.6.93,1.04.23.44.35.99.35,1.66v6.57h-1.89v-1.35h-.08c-.13.26-.32.5-.57.74-.25.24-.57.43-.96.59-.39.15-.85.23-1.39.23h0ZM240.8,78.97c.54,0,1-.1,1.38-.31.38-.21.66-.48.86-.82.2-.34.29-.7.29-1.09v-1.24c-.07.07-.19.12-.38.18-.19.05-.41.1-.65.15-.24.04-.49.08-.72.12-.24.03-.45.06-.63.08-.36.05-.69.13-1,.24-.31.11-.55.27-.73.47-.18.2-.27.48-.27.81,0,.31.08.57.24.77.16.21.38.36.66.47.28.11.6.16.96.16h0Z"/>
      <path class="cls-1" d="M249.29,74.54v5.78h-1.96v-9.83h1.88v2.41s-.24,0-.24,0c.29-.88.72-1.52,1.27-1.94.55-.41,1.22-.62,2.01-.62.67,0,1.26.14,1.77.43.51.28.91.7,1.19,1.26.29.55.43,1.24.43,2.06v6.22h-1.95v-5.98c0-.72-.19-1.29-.56-1.69s-.88-.6-1.53-.6c-.44,0-.84.09-1.19.28-.35.19-.63.47-.83.84-.2.37-.3.82-.3,1.36Z"/>
      <path class="cls-1" d="M263.58,73.94v1.68h-5.91v-1.68h5.91Z"/>
      <path class="cls-1" d="M267.79,67.06v13.26h-2.04v-13.26h2.04Z"/>
      <path class="cls-1" d="M271.96,74.54v5.78h-1.96v-9.83h1.88v2.41s-.24,0-.24,0c.29-.88.71-1.52,1.27-1.94.55-.41,1.22-.62,2.01-.62.67,0,1.26.14,1.77.43.51.28.91.7,1.19,1.26.29.55.43,1.24.43,2.06v6.22h-1.95v-5.98c0-.72-.19-1.29-.56-1.69s-.88-.6-1.53-.6c-.44,0-.84.09-1.19.28-.35.19-.63.47-.83.84-.2.37-.3.82-.3,1.36Z"/>
      <path class="cls-1" d="M283.96,80.54c-.73,0-1.37-.11-1.94-.32-.57-.21-1.03-.53-1.38-.95s-.59-.93-.7-1.54l1.86-.3c.12.52.36.9.73,1.15.37.25.84.38,1.43.38.62,0,1.12-.13,1.49-.39.37-.26.55-.57.55-.94,0-.32-.12-.58-.35-.79-.24-.2-.58-.36-1.04-.46l-1.66-.36c-.92-.21-1.6-.54-2.05-.99-.45-.45-.68-1.04-.68-1.75,0-.59.16-1.1.49-1.54.32-.44.77-.78,1.34-1.02.57-.24,1.23-.36,1.97-.36s1.34.11,1.86.32c.52.22.94.52,1.26.91.32.39.53.85.65,1.37l-1.78.3c-.1-.37-.3-.7-.62-.97-.32-.27-.76-.41-1.35-.41-.54,0-.99.12-1.35.36-.35.24-.53.55-.53.93,0,.33.12.59.37.79.24.2.62.36,1.14.48l1.6.36c.93.21,1.62.53,2.06.97.44.44.67,1.01.67,1.7,0,.6-.17,1.13-.52,1.59-.34.46-.82.82-1.43,1.08-.61.26-1.31.39-2.1.39h0Z"/>
      <path class="cls-1" d="M289.58,84.04v-13.54h1.9v1.56h.13c.14-.24.32-.49.55-.75.23-.26.53-.49.91-.67.38-.19.85-.28,1.43-.28.81,0,1.53.2,2.15.61.62.41,1.11.99,1.47,1.74.36.76.54,1.66.54,2.72s-.18,1.95-.53,2.71c-.36.76-.84,1.35-1.47,1.76-.62.41-1.34.62-2.16.62-.56,0-1.03-.09-1.4-.28-.38-.19-.68-.41-.92-.68-.24-.26-.42-.52-.56-.76h-.09v5.24h-1.96ZM294.09,78.87c.55,0,1.02-.15,1.41-.44.39-.3.68-.7.88-1.22s.3-1.11.3-1.78-.1-1.26-.3-1.77c-.2-.51-.49-.91-.88-1.2-.38-.29-.86-.44-1.42-.44s-1.03.14-1.42.43c-.39.29-.68.68-.88,1.19-.2.51-.3,1.1-.3,1.79s.1,1.28.3,1.8c.2.52.5.92.89,1.21.39.29.86.44,1.41.44h0Z"/>
      <path class="cls-1" d="M301.25,68.96c-.34,0-.63-.11-.87-.34-.24-.23-.36-.5-.36-.82s.12-.6.36-.82c.24-.22.53-.33.87-.33s.63.11.87.33c.24.22.36.5.36.82s-.12.6-.36.82c-.24.23-.53.34-.87.34ZM300.27,80.32v-9.82h1.96v9.82h-1.96Z"/>
      <path class="cls-1" d="M304.29,80.32v-9.82h1.89v1.57h.09c.18-.53.5-.95.93-1.25.44-.3.95-.45,1.54-.45.13,0,.27,0,.42.01.15,0,.28.02.38.03v1.84c-.07-.02-.21-.04-.41-.06-.2-.02-.41-.04-.62-.04-.43,0-.82.09-1.16.28-.34.18-.62.44-.81.78-.2.34-.29.73-.29,1.18v5.94h-1.96Z"/>
      <path class="cls-1" d="M314.66,80.53c-.98,0-1.82-.21-2.52-.63-.7-.42-1.24-1.01-1.62-1.77-.38-.76-.57-1.65-.57-2.66s.19-1.89.56-2.66c.38-.77.91-1.37,1.59-1.8.69-.43,1.48-.65,2.39-.65.6,0,1.16.1,1.69.29.53.2,1.01.5,1.42.9.41.41.74.92.98,1.55.24.63.36,1.37.36,2.23v.66h-7.96v-1.46h6.95l-.89.47c0-.6-.1-1.13-.29-1.59-.19-.46-.48-.82-.86-1.07-.38-.26-.84-.38-1.39-.38s-1.02.13-1.41.39c-.39.26-.69.61-.9,1.04-.21.43-.31.92-.31,1.45v.95c0,.66.11,1.22.34,1.69.23.47.55.83.97,1.07.42.25.91.37,1.47.37.38,0,.72-.06,1.02-.16.3-.11.56-.27.78-.49.21-.21.38-.47.48-.78l1.84.34c-.15.53-.41,1-.8,1.41s-.86.72-1.43.95c-.57.23-1.21.34-1.92.34Z"/>
      <path class="cls-1" d="M324.22,80.52c-.81,0-1.53-.21-2.15-.62-.62-.41-1.11-1-1.47-1.76-.35-.76-.53-1.66-.53-2.71s.18-1.96.54-2.72c.36-.76.85-1.34,1.48-1.74.63-.41,1.34-.61,2.14-.61.57,0,1.05.09,1.43.28.38.19.68.41.91.67.23.26.41.51.54.75h.1v-4.99h1.95v13.26h-1.9v-1.53h-.13c-.13.25-.32.51-.55.77-.24.26-.55.49-.92.68-.38.19-.85.28-1.41.28h0ZM324.64,78.87c.55,0,1.02-.15,1.41-.44.39-.29.68-.69.88-1.21.2-.52.3-1.12.3-1.8s-.1-1.29-.3-1.79c-.2-.51-.49-.9-.88-1.19-.39-.29-.86-.43-1.42-.43s-1.03.15-1.42.44-.68.69-.88,1.2c-.2.51-.3,1.1-.3,1.77s.1,1.26.3,1.78c.2.52.49.93.88,1.22.39.3.86.44,1.41.44h0Z"/>
      <path class="cls-1" d="M332.57,80.47c-.36,0-.67-.13-.93-.38-.26-.25-.38-.56-.38-.92s.13-.67.38-.92c.26-.25.57-.38.93-.38s.67.13.92.38.38.56.38.92-.13.67-.38.92c-.25.25-.56.38-.92.38Z"/>
    </g>
  </g>
</svg>